<?xml version="1.0" standalone="no"?>
<!DOCTYPE svg PUBLIC "-//W3C//DTD SVG 20010904//EN"
 "http://www.w3.org/TR/2001/REC-SVG-20010904/DTD/svg10.dtd">
<svg version="1.0" xmlns="http://www.w3.org/2000/svg"
 width="1024.000000pt" height="1024.000000pt" viewBox="0 0 1024.000000 1024.000000"
 preserveAspectRatio="xMidYMid meet">

<g transform="translate(0.000000,1024.000000) scale(0.100000,-0.100000)"
fill="#000000" stroke="none">
<path d="M4243 8408 c-23 -25 -2458 -4236 -2468 -4269 -16 -51 -46 -49 857
-49 l840 0 25 28 c13 15 376 637 807 1382 l782 1355 34 0 35 0 525 -910 c289
-500 849 -1470 1244 -2155 396 -685 904 -1564 1129 -1955 225 -390 419 -720
430 -732 l20 -23 843 0 c783 0 844 1 853 17 5 10 5 26 0 39 -4 13 -328 578
-720 1256 -392 678 -896 1553 -1122 1943 -394 682 -1555 2693 -2084 3610 -140
242 -263 450 -275 462 l-21 23 -857 0 -857 0 -20 -22z"/>
<path d="M880 2565 c-24 -12 -144 -216 -703 -1189 -75 -131 -137 -245 -137
-252 0 -7 7 -20 16 -28 14 -14 103 -16 835 -16 689 0 824 2 847 14 20 11 101
142 317 517 480 832 525 912 525 925 0 7 -7 20 -16 28 -14 14 -103 16 -837 16
-678 -1 -826 -3 -847 -15z"/>
</g>
</svg>
